<svg viewBox="0 0 96 96" xmlns="http://www.w3.org/2000/svg" xmlns:xlink="http://www.w3.org/1999/xlink" id="Icons_MagicianHat" overflow="hidden"><path d="M71.718 30C73.0953 25.1684 76.4827 21.1617 81.018 19 76.477 16.8458 73.0869 12.8361 71.718 8 70.3407 12.8316 66.9533 16.8383 62.418 19 66.9533 21.1617 70.3407 25.1684 71.718 30Z"/><path d="M21.915 30C22.7917 26.9261 24.9463 24.3768 27.831 23 24.9428 21.6277 22.7867 19.0765 21.915 16 21.039 19.0739 18.8847 21.6234 16 23 18.8847 24.3766 21.039 26.9261 21.915 30Z"/><path d="M39.507 2C38.6935 4.85446 36.6928 7.22186 34.014 8.5 36.6928 9.77814 38.6935 12.1455 39.507 15 40.3205 12.1455 42.3212 9.77814 45 8.5 42.3177 7.2264 40.3155 4.85715 39.507 2Z"/><path d="M49.775 16C49.2741 17.7563 48.0431 19.2131 46.395 20 48.0431 20.7869 49.2741 22.2437 49.775 24 50.2753 22.2433 51.5065 20.7864 53.155 20 51.5041 19.2166 50.2719 17.7585 49.775 16Z"/><path d="M82.792 44.067C82.792 35.373 64.866 30.682 48 30.682 31.134 30.682 13.208 35.373 13.208 44.067 13.208 48.795 18.514 52.336 26.062 54.586 26.1156 65.994 24.9211 77.3737 22.5 88.522 27.566 91.784 36.562 94 48 94 59.438 94 68.434 91.784 73.5 88.522 71.0775 77.3739 69.8818 65.9942 69.934 54.586 77.486 52.336 82.792 48.8 82.792 44.067ZM48 63.454C41.951 63.4624 35.916 62.8728 29.983 61.694 30.061 59.707 30.098 57.675 30.083 55.619 30.6163 55.735 31.1523 55.8457 31.691 55.951L31.96 56C32.7293 56.146 33.51 56.2817 34.302 56.407L34.576 56.448C36.206 56.698 37.876 56.902 39.569 57.059L39.85 57.086C40.65 57.158 41.463 57.217 42.274 57.268L42.698 57.293C43.498 57.3403 44.3017 57.3767 45.109 57.402L45.486 57.412C46.325 57.435 47.164 57.45 48 57.45 48.836 57.45 49.675 57.435 50.514 57.412L50.891 57.402C51.697 57.38 52.5 57.346 53.3 57.3L53.723 57.275C54.535 57.224 55.344 57.165 56.149 57.093L56.427 57.066C58.127 56.909 59.794 56.705 61.427 56.455L61.696 56.414C62.488 56.2893 63.269 56.1537 64.039 56.007L64.311 55.954C64.8537 55.8487 65.3893 55.738 65.918 55.622 65.902 57.678 65.938 59.71 66.018 61.697 60.0846 62.8749 54.0492 63.4634 48 63.454ZM65.573 46.111C59.8251 47.5306 53.9203 48.2154 48 48.149 42.0797 48.2154 36.1749 47.5306 30.427 46.111 29.2984 45.8796 28.5711 44.7772 28.8024 43.6486 28.9701 42.8308 29.6092 42.1917 30.427 42.024 36.1749 40.6045 42.0797 39.9197 48 39.986 53.9203 39.9197 59.8251 40.6045 65.573 42.024 66.7016 42.2554 67.4289 43.3578 67.1976 44.4864 67.0299 45.3042 66.3908 45.9433 65.573 46.111Z"/></svg>